<?xml version="1.0" encoding="UTF-8"?><svg id="uuid-163bcb19-775e-4933-8837-860a9f53ba21" xmlns="http://www.w3.org/2000/svg" xmlns:xlink="http://www.w3.org/1999/xlink" viewBox="0 0 495.98 296"><defs><style>.uuid-866c6c01-255d-4c3b-8980-e8f62b0bd56a{fill:url(#uuid-f3f74141-88c5-4215-a0a2-01ab6d019c48);}.uuid-feb5a44b-05ae-4615-aa59-484c2cd02c94{fill:#c767c1;}.uuid-19ab9f60-677a-4211-9594-1335ac5dd113{fill:#c868b9;}.uuid-13941f73-fd55-475b-970f-61ed7aa921a4{fill:url(#uuid-7bbf503b-1ced-47c0-82e8-4b0da27f17ad);}.uuid-648e593b-c781-4e50-a3ce-ad60737adb68{fill:url(#uuid-142e665f-2651-4d76-9c8e-9611e6fa2464);}</style><linearGradient id="uuid-7bbf503b-1ced-47c0-82e8-4b0da27f17ad" x1="254.84" y1="233.39" x2="444.05" y2=".64" gradientTransform="matrix(1, 0, 0, 1, 0, 0)" gradientUnits="userSpaceOnUse"><stop offset="0" stop-color="#c96abd"/><stop offset=".24" stop-color="#f76ebe"/><stop offset=".71" stop-color="#f8b985"/><stop offset="1" stop-color="#fad076"/></linearGradient><linearGradient id="uuid-f3f74141-88c5-4215-a0a2-01ab6d019c48" x1="82.32" y1="210.08" x2="261.82" y2="26.58" gradientTransform="matrix(1, 0, 0, 1, 0, 0)" gradientUnits="userSpaceOnUse"><stop offset="0" stop-color="#c96abd"/><stop offset=".38" stop-color="#f76ebe"/><stop offset=".71" stop-color="#f8b985"/></linearGradient><linearGradient id="uuid-142e665f-2651-4d76-9c8e-9611e6fa2464" x1="95.76" y1="54.84" x2="28.26" y2="161.84" gradientTransform="matrix(1, 0, 0, 1, 0, 0)" gradientUnits="userSpaceOnUse"><stop offset="0" stop-color="#facc75"/><stop offset="1" stop-color="#f79c95"/></linearGradient></defs><g id="uuid-7dffee91-16db-4fdb-bae6-7138520e7812"><g><path class="uuid-13941f73-fd55-475b-970f-61ed7aa921a4" d="M483.98,0h-34.42l-32.91,40h-69.29l-107.35,140.38c-13.35,16.38-11.4,35.59,4.98,48.94h0c16,13.04,39.76,10.62,52.81-5.38L456.85,24h27.04c5.15,0,9.89-3.2,11.47-8.1,2.65-8.23-3.51-15.9-11.38-15.9Z"/><circle class="uuid-19ab9f60-677a-4211-9594-1335ac5dd113" cx="124.38" cy="274" r="22"/><circle class="uuid-feb5a44b-05ae-4615-aa59-484c2cd02c94" cx="270.38" cy="274" r="22"/><path class="uuid-866c6c01-255d-4c3b-8980-e8f62b0bd56a" d="M199.9,40l-76.71,99.63c-6.53,8.79-19.07,10.64-27.86,4.11-8.21-6.1-10.36-17.43-5.29-26.06-3.9,6.33-19.74,32-15.28,71.83,1.4,12.51,10.14,21.93,17.9,31.84h0c14.03,20.22,43.84,21.18,59.17,1.91L297.63,40h-97.72Z"/><path class="uuid-648e593b-c781-4e50-a3ce-ad60737adb68" d="M93.39,113.34l56.55-73.34H56.05c-9.32,0-18.6,1.79-27.08,5.63C-1.22,59.27-7.6,90.36,8.82,114.03l73.55,93.9c-8.37-36.01-2.21-64.32,2.51-78.61,1.91-5.77,4.79-11.17,8.51-15.98Z"/></g></g></svg>